<?xml version="1.0" encoding="utf-8"?>
<!-- Generator: Adobe Illustrator 25.0.0, SVG Export Plug-In . SVG Version: 6.00 Build 0)  -->
<svg version="1.1" id="Layer_3" xmlns="http://www.w3.org/2000/svg" xmlns:xlink="http://www.w3.org/1999/xlink" x="0px" y="0px"
	 viewBox="0 0 1080 1080" style="enable-background:new 0 0 1080 1080;" xml:space="preserve">
<style type="text/css">
	.st0{fill:#FFFFFF;}
	.st1{fill:#ED1C24;}
</style>
<g>
	<path class="st0" d="M530.5,37L37,530.5c-5.3,5.3-5.3,13.8,0,19L530.5,1043c5.3,5.3,13.8,5.3,19,0L1043,549.5
		c5.3-5.3,5.3-13.8,0-19L549.5,37C544.3,31.8,535.7,31.8,530.5,37z M528.6,260L258.1,530.5c-5.3,5.3-5.3,13.8,0,19l75.7,75.7
		c5.2,5.2,13.7,5.3,19,0C381,596.9,456.4,521.5,502,475.9c8.5-8.5,23-2.5,23,9.5l0,151.3c0,3.6-1.4,7-3.9,9.5l-73.6,73.6
		c-5.3,5.3-5.3,13.8,0,19l81.2,81.2c2.5,2.5,3.9,5.9,3.9,9.5v151.3c0,12-14.5,18-23,9.5L68.7,549.5c-5.3-5.3-5.3-13.8,0-19
		L509.6,89.6c8.5-8.5,23-2.5,23,9.5v151.3C532.6,254,531.1,257.4,528.6,260z M547.4,980.9V99.1c0-12,14.5-18,23-9.5l107,106.9
		c2.5,2.5,3.9,5.9,3.9,9.5v451.6c0,12,14.5,18,23,9.5l212.3-212.3c5.3-5.3,13.8-5.3,19,0l75.7,75.7c5.2,5.2,5.2,13.7,0,19
		c-132.2,132.2-367,366.9-440.9,440.9C561.9,998.9,547.4,992.9,547.4,980.9z"/>
</g>
<g>
	<path class="st1" d="M1011.3,549.5c-132.2,132.2-367,366.9-440.9,440.9c-8.5,8.5-23,2.5-23-9.5V99.1c0-12,14.5-18,23-9.5l107,106.9
		c2.5,2.5,3.9,5.9,3.9,9.5v451.6c0,12,14.5,18,23,9.5l212.3-212.3c5.3-5.3,13.8-5.3,19,0l75.7,75.7
		C1016.5,535.8,1016.5,544.3,1011.3,549.5z"/>
</g>
<g>
	<path class="st1" d="M528.6,260L258.1,530.5c-5.3,5.3-5.3,13.8,0,19l75.7,75.7c5.2,5.2,13.7,5.3,19,0
		C381,596.9,456.4,521.5,502,475.9c8.5-8.5,23-2.5,23,9.5l0,151.3c0,3.6-1.4,7-3.9,9.5l-73.6,73.6c-5.3,5.3-5.3,13.8,0,19l81.2,81.2
		c2.5,2.5,3.9,5.9,3.9,9.5v151.3c0,12-14.5,18-23,9.5L68.7,549.5c-5.3-5.3-5.3-13.8,0-19L509.6,89.6c8.5-8.5,23-2.5,23,9.5v151.3
		C532.6,254,531.1,257.4,528.6,260z"/>
</g>
</svg>
